<?xml version="1.0" encoding="UTF-8" standalone="no"?>
<!-- Created with Inkscape (http://www.inkscape.org/) -->

<svg
   xmlns:dc="http://purl.org/dc/elements/1.1/"
   xmlns:cc="http://creativecommons.org/ns#"
   xmlns:rdf="http://www.w3.org/1999/02/22-rdf-syntax-ns#"
   xmlns:svg="http://www.w3.org/2000/svg"
   xmlns="http://www.w3.org/2000/svg"
   xmlns:sodipodi="http://sodipodi.sourceforge.net/DTD/sodipodi-0.dtd"
   xmlns:inkscape="http://www.inkscape.org/namespaces/inkscape"
   width="23.948767mm"
   height="25.357586mm"
   viewBox="0 0 23.948767 25.357586"
   version="1.1"
   id="svg8"
   sodipodi:docname="logo.svg"
   inkscape:version="0.92.3 (2405546, 2018-03-11)"
   inkscape:export-filename="/home/ridwan/zona_perang.png"
   inkscape:export-xdpi="98.888802"
   inkscape:export-ydpi="98.888802">
  <defs
     id="defs2" />
  <sodipodi:namedview
     id="base"
     pagecolor="#ffffff"
     bordercolor="#666666"
     borderopacity="1.0"
     inkscape:pageopacity="0.0"
     inkscape:pageshadow="2"
     inkscape:zoom="1.4"
     inkscape:cx="-63.984044"
     inkscape:cy="27.901677"
     inkscape:document-units="mm"
     inkscape:current-layer="layer1"
     showgrid="false"
     showguides="false"
     inkscape:window-width="1366"
     inkscape:window-height="714"
     inkscape:window-x="0"
     inkscape:window-y="25"
     inkscape:window-maximized="1" />
  <metadata
     id="metadata5">
    <rdf:RDF>
      <cc:Work
         rdf:about="">
        <dc:format>image/svg+xml</dc:format>
        <dc:type
           rdf:resource="http://purl.org/dc/dcmitype/StillImage" />
        <dc:title></dc:title>
      </cc:Work>
    </rdf:RDF>
  </metadata>
  <g
     inkscape:label="Layer 1"
     inkscape:groupmode="layer"
     id="layer1"
     transform="translate(200.01755,-155.70291)">
    <path
       cx="-203.54384"
       cy="151.82393"
       r="8.5"
       style="opacity:1;fill:#501616;fill-opacity:1;stroke:none;stroke-width:0.24340276;stroke-linecap:square;stroke-linejoin:round;stroke-miterlimit:4;stroke-dasharray:none;stroke-dashoffset:0;stroke-opacity:1"
       id="path913"
       d=""
       inkscape:connector-curvature="0" />
    <path
       cx="-203.54384"
       cy="151.82393"
       r="8.5"
       style="opacity:1;fill:#501616;fill-opacity:1;stroke:none;stroke-width:0.24340276;stroke-linecap:square;stroke-linejoin:round;stroke-miterlimit:4;stroke-dasharray:none;stroke-dashoffset:0;stroke-opacity:1"
       id="path915"
       d=""
       inkscape:connector-curvature="0" />
    <g
       style="fill:#ffffff"
       id="g1018"
       transform="matrix(1.4087592,0,0,1.4087592,98.701096,-45.501652)">
      <path
         inkscape:connector-curvature="0"
         id="circle907"
         d="m -209.67962,147.51073 a 7.5,7.5 0 0 0 1.10756,9.87774 l 0.33596,-0.37143 a 6.9999999,6.9999999 0 0 1 -2.06916,-3.38152 6.9999999,6.9999999 0 0 1 1.04019,-5.83356 z"
         style="opacity:1;fill:#ffffff;fill-opacity:1;stroke:none;stroke-width:0.21476716;stroke-linecap:square;stroke-linejoin:round;stroke-miterlimit:4;stroke-dasharray:none;stroke-dashoffset:0;stroke-opacity:1" />
      <path
         inkscape:connector-curvature="0"
         id="circle911"
         d="m -196.6836,156.82764 a 8.4999998,8.4999998 0 0 1 -6.86005,3.49642 8.4999998,8.4999998 0 0 1 -6.41666,-2.94142 l -0.38602,0.33435 a 8.9999999,8.9999999 0 0 0 7.17889,3.09903 8.9999999,8.9999999 0 0 0 6.89467,-3.68866 z"
         style="opacity:1;fill:#ffffff;fill-opacity:1;stroke:none;stroke-width:0.25772059;stroke-linecap:square;stroke-linejoin:round;stroke-miterlimit:4;stroke-dasharray:none;stroke-dashoffset:0;stroke-opacity:1" />
      <path
         inkscape:connector-curvature="0"
         style="opacity:1;fill:#ffffff;fill-opacity:1;stroke:none;stroke-width:0.25772059;stroke-linecap:square;stroke-linejoin:round;stroke-miterlimit:4;stroke-dasharray:none;stroke-dashoffset:0;stroke-opacity:1"
         d="m -196.6836,146.82022 a 8.4999998,8.4999998 0 0 0 -6.86005,-3.49642 8.4999998,8.4999998 0 0 0 -6.41666,2.94142 l -0.38602,-0.33435 a 8.9999999,8.9999999 0 0 1 7.17889,-3.09903 8.9999999,8.9999999 0 0 1 6.89467,3.68866 z"
         id="path920" />
      <path
         inkscape:connector-curvature="0"
         id="circle922"
         d="m -196.24797,147.46283 -0.43666,0.26097 a 7.9999998,7.9999998 0 0 1 1.14101,4.10001 7.9999998,7.9999998 0 0 1 -0.79943,3.46283 l 0.4594,0.22118 a 8.4999998,8.4999998 0 0 0 -0.36432,-8.04499 z"
         style="opacity:1;fill:#ffffff;fill-opacity:1;stroke:none;stroke-width:0.24340276;stroke-linecap:square;stroke-linejoin:round;stroke-miterlimit:4;stroke-dasharray:none;stroke-dashoffset:0;stroke-opacity:1" />
      <path
         inkscape:connector-curvature="0"
         style="opacity:1;fill:#ffffff;fill-opacity:1;stroke:none;stroke-width:0.24340276;stroke-linecap:square;stroke-linejoin:round;stroke-miterlimit:4;stroke-dasharray:none;stroke-dashoffset:0;stroke-opacity:1"
         d="m -210.83971,147.46283 0.43667,0.26097 a 7.9999998,7.9999998 0 0 0 -1.14102,4.10001 7.9999998,7.9999998 0 0 0 0.79943,3.46283 l -0.4594,0.22118 a 8.4999998,8.4999998 0 0 1 0.36432,-8.04499 z"
         id="path931" />
      <path
         inkscape:connector-curvature="0"
         id="circle937"
         d="m -203.48318,143.82429 a 7.9999998,7.9999998 0 0 0 -4.52738,1.36271 l 0.28267,0.42013 a 7.5,7.5 0 0 1 4.18424,-1.28313 7.5,7.5 0 0 1 2.15595,0.31936 l 0.14469,-0.48162 a 7.9999998,7.9999998 0 0 0 -2.24017,-0.33745 z"
         style="opacity:1;fill:#ffffff;fill-opacity:1;stroke:none;stroke-width:0.22908495;stroke-linecap:square;stroke-linejoin:round;stroke-miterlimit:4;stroke-dasharray:none;stroke-dashoffset:0;stroke-opacity:1" />
      <path
         inkscape:connector-curvature="0"
         style="opacity:1;fill:#ffffff;fill-opacity:1;stroke:none;stroke-width:0.22908495;stroke-linecap:square;stroke-linejoin:round;stroke-miterlimit:4;stroke-dasharray:none;stroke-dashoffset:0;stroke-opacity:1"
         d="m -203.6045,159.82356 a 7.9999998,7.9999998 0 0 0 4.52738,-1.3627 l -0.28267,-0.42013 a 7.5,7.5 0 0 1 -4.18424,1.28312 7.5,7.5 0 0 1 -2.15595,-0.31936 l -0.14469,0.48163 a 7.9999998,7.9999998 0 0 0 2.24017,0.33744 z"
         id="path942" />
      <path
         inkscape:connector-curvature="0"
         id="circle944"
         d="m -203.54365,145.32394 a 6.4999999,6.4999999 0 0 0 -6.50037,6.49987 6.4999999,6.4999999 0 0 0 6.50037,6.50037 6.4999999,6.4999999 0 0 0 6.49987,-6.50037 6.4999999,6.4999999 0 0 0 -6.49987,-6.49987 z m 0,0.50023 a 5.9999998,5.9999998 0 0 1 5.99964,5.99964 5.9999998,5.9999998 0 0 1 -5.99964,6.00015 5.9999998,5.9999998 0 0 1 -6.00015,-6.00015 5.9999998,5.9999998 0 0 1 6.00015,-5.99964 z"
         style="opacity:1;fill:#ffffff;fill-opacity:1;stroke:none;stroke-width:0.18613152;stroke-linecap:square;stroke-linejoin:round;stroke-miterlimit:4;stroke-dasharray:none;stroke-dashoffset:0;stroke-opacity:1" />
      <path
         inkscape:connector-curvature="0"
         style="opacity:1;fill:#ffffff;fill-opacity:1;stroke:none;stroke-width:0.21476716;stroke-linecap:square;stroke-linejoin:round;stroke-miterlimit:4;stroke-dasharray:none;stroke-dashoffset:0;stroke-opacity:1"
         d="m -197.40806,156.13713 a 7.5,7.5 0 0 0 -1.10756,-9.87774 l -0.33596,0.37143 a 6.9999999,6.9999999 0 0 1 2.06916,3.38152 6.9999999,6.9999999 0 0 1 -1.04019,5.83356 z"
         id="path952" />
      <path
         style="color:#000000;font-style:normal;font-variant:normal;font-weight:normal;font-stretch:normal;font-size:8.69014835px;line-height:1.25;font-family:Pricedown;-inkscape-font-specification:Pricedown;font-variant-ligatures:normal;font-variant-position:normal;font-variant-caps:normal;font-variant-numeric:normal;font-variant-alternates:normal;font-feature-settings:normal;text-indent:0;text-align:start;text-decoration:none;text-decoration-line:none;text-decoration-style:solid;text-decoration-color:#000000;letter-spacing:0px;word-spacing:0px;text-transform:none;writing-mode:lr-tb;direction:ltr;text-orientation:mixed;dominant-baseline:auto;baseline-shift:baseline;text-anchor:start;white-space:normal;shape-padding:0;clip-rule:nonzero;display:inline;overflow:visible;visibility:visible;opacity:1;isolation:auto;mix-blend-mode:normal;color-interpolation:sRGB;color-interpolation-filters:linearRGB;solid-color:#000000;solid-opacity:1;vector-effect:none;fill:#ffffff;fill-opacity:1;fill-rule:nonzero;stroke:none;stroke-width:0.5;stroke-linecap:butt;stroke-linejoin:miter;stroke-miterlimit:4;stroke-dasharray:none;stroke-dashoffset:0;stroke-opacity:1;color-rendering:auto;image-rendering:auto;shape-rendering:auto;text-rendering:auto;enable-background:accumulate"
         d="m -208.05078,148.79688 v 1.89062 h 1.70508 l -1.70508,2.4082 v 1.75391 h 0.25 4.30859 v -1.88086 h -1.66601 l 1.66601,-2.55273 v -1.61914 z m 4.91016,0 v 6.05273 h 0.25 2.05859 v -2.07617 h 1.0957 c 0.33371,0 0.61766,-0.0615 0.83203,-0.22852 0.21438,-0.16696 0.32227,-0.43648 0.32227,-0.72461 v -2.06836 c 0,-0.28813 -0.10789,-0.5596 -0.32227,-0.72656 -0.21437,-0.16696 -0.49832,-0.22851 -0.83203,-0.22851 z m -4.41016,0.5 h 3.55859 v 0.9707 l -2.08984,3.20117 h 2.08984 v 0.88086 h -3.55859 v -1.0957 l 2.17187,-3.06641 h -2.17187 z m 4.91016,0 h 2.90429 c 0.26881,0 0.43851,0.0554 0.52539,0.12304 0.0869,0.0677 0.12891,0.1509 0.12891,0.33203 v 2.06836 c 0,0.18114 -0.042,0.26241 -0.12891,0.33008 -0.0869,0.0677 -0.25658,0.12305 -0.52539,0.12305 h -1.5957 v 2.07617 h -1.30859 z m 1.30859,0.89062 v 1.27344 h 0.67578 c 0.0475,0 0.12763,-0.0163 0.18945,-0.0781 0.0618,-0.0618 0.0781,-0.14199 0.0781,-0.18945 v -0.73828 c 0,-0.0475 -0.0163,-0.12763 -0.0781,-0.18946 -0.0618,-0.0618 -0.14199,-0.0781 -0.18945,-0.0781 z"
         id="text970"
         inkscape:connector-curvature="0" />
    </g>
  </g>
</svg>
